<svg version="1.1" xmlns="http://www.w3.org/2000/svg" xmlns:xlink="http://www.w3.org/1999/xlink" width="676.29691" height="1492.3495" viewBox="0,0,676.29691,1492.3495"><defs><linearGradient x1="180.00003" y1="-6.57657" x2="180.00003" y2="646.5766" gradientUnits="userSpaceOnUse" id="color-1"><stop offset="0" stop-color="#004eff"/><stop offset="1" stop-color="#475d94"/></linearGradient><linearGradient x1="248.53102" y1="593.32985" x2="238.44902" y2="771.10551" gradientUnits="userSpaceOnUse" id="color-2"><stop offset="0" stop-color="#6d6e71" stop-opacity="0.25882"/><stop offset="1" stop-color="#00b1ff" stop-opacity="0.26667"/></linearGradient><linearGradient x1="250.14633" y1="564.84709" x2="240.06433" y2="742.62274" gradientUnits="userSpaceOnUse" id="color-3"><stop offset="0" stop-color="#6d6e71" stop-opacity="0.25882"/><stop offset="1" stop-color="#00b1ff" stop-opacity="0.26667"/></linearGradient><linearGradient x1="214.06047" y1="511.66751" x2="203.97848" y2="689.44316" gradientUnits="userSpaceOnUse" id="color-4"><stop offset="0" stop-color="#6d6e71" stop-opacity="0.25882"/><stop offset="1" stop-color="#00b1ff" stop-opacity="0.26667"/></linearGradient><linearGradient x1="216.35592" y1="471.19201" x2="206.27392" y2="648.96766" gradientUnits="userSpaceOnUse" id="color-5"><stop offset="0" stop-color="#6d6e71" stop-opacity="0.25882"/><stop offset="1" stop-color="#00b1ff" stop-opacity="0.26667"/></linearGradient><linearGradient x1="168.10729" y1="420.33048" x2="158.0253" y2="598.10614" gradientUnits="userSpaceOnUse" id="color-6"><stop offset="0" stop-color="#6d6e71" stop-opacity="0.25882"/><stop offset="1" stop-color="#00b1ff" stop-opacity="0.26667"/></linearGradient><linearGradient x1="171.16788" y1="366.36315" x2="161.08589" y2="544.13878" gradientUnits="userSpaceOnUse" id="color-7"><stop offset="0" stop-color="#6d6e71" stop-opacity="0.25882"/><stop offset="1" stop-color="#00b1ff" stop-opacity="0.26667"/></linearGradient><linearGradient x1="129.64957" y1="329.41854" x2="119.56758" y2="507.19419" gradientUnits="userSpaceOnUse" id="color-8"><stop offset="0" stop-color="#6d6e71" stop-opacity="0.25882"/><stop offset="1" stop-color="#00b1ff" stop-opacity="0.26667"/></linearGradient><linearGradient x1="132.03003" y1="287.44394" x2="121.94804" y2="465.2196" gradientUnits="userSpaceOnUse" id="color-9"><stop offset="0" stop-color="#6d6e71" stop-opacity="0.25882"/><stop offset="1" stop-color="#00b1ff" stop-opacity="0.26667"/></linearGradient></defs><g transform="translate(173.05066,7.57655)"><g data-paper-data="{&quot;isPaintingLayer&quot;:true}" fill-rule="nonzero" stroke-linecap="butt" stroke-linejoin="miter" stroke-miterlimit="10" stroke-dasharray="" stroke-dashoffset="0" style="mix-blend-mode: normal"><path d="M-12.94293,646.5766v-653.15315h385.88589v653.15315z" fill="url(#color-1)" stroke="#000000" stroke-width="2"/><path d="M-52.85044,1454.90423l49.67108,-875.84935c0,0 45.82036,38.60062 132.69908,36.11141c88.83273,-2.54519 219.27082,-46.1529 266.08462,-43.498c55.93285,3.17206 104.63707,35.93653 104.63707,35.93653l-49.67108,875.84935z" data-paper-data="{&quot;index&quot;:null}" fill="url(#color-2)" stroke-opacity="0.23922" stroke="#ffffff" stroke-width="2.5"/><path d="M-51.23513,1426.42147l49.67107,-875.84934c0,0 52.09629,-27.04789 108.02914,-23.87583c46.8138,2.6549 171.48526,60.73035 259.46064,73.30266c86.04024,12.29576 135.931,-20.87688 135.931,-20.87688l-49.67108,875.84935z" data-paper-data="{&quot;index&quot;:null}" fill="url(#color-3)" stroke-opacity="0.23922" stroke="#ffffff" stroke-width="2.5"/><path d="M-87.32099,1373.24189l49.67108,-875.84935c0,0 45.82036,38.60062 132.69908,36.11141c88.83273,-2.54519 219.27083,-46.1529 266.08462,-43.498c55.93286,3.17206 104.63707,35.93653 104.63707,35.93653l-49.67108,875.84935z" data-paper-data="{&quot;index&quot;:null}" fill="url(#color-4)" stroke-opacity="0.23922" stroke="#ffffff" stroke-width="2.5"/><path d="M-85.02554,1332.76639l49.67107,-875.84934c0,0 52.09629,-27.04789 108.02914,-23.87583c46.8138,2.6549 171.48525,60.73035 259.46064,73.30266c86.04024,12.29576 135.931,-20.87688 135.931,-20.87688l-49.67108,875.84935z" data-paper-data="{&quot;index&quot;:null}" fill="url(#color-5)" stroke-opacity="0.23922" stroke="#ffffff" stroke-width="2.5"/><path d="M-133.27417,1281.90486l49.67107,-875.84934c0,0 52.09629,-27.04788 108.02914,-23.87582c46.81379,2.6549 171.48525,60.73035 259.46064,73.30266c86.04024,12.29576 135.931,-20.87689 135.931,-20.87689l-49.67108,875.84935z" data-paper-data="{&quot;index&quot;:null}" fill="url(#color-6)" stroke-opacity="0.23922" stroke="#ffffff" stroke-width="2.5"/><path d="M-130.21358,1227.93752l49.67108,-875.84935c0,0 45.82036,38.60062 132.69908,36.1114c88.83272,-2.54519 219.27083,-46.1529 266.08462,-43.498c55.93286,3.17206 104.63706,35.93654 104.63706,35.93654l-49.67108,875.84935z" data-paper-data="{&quot;index&quot;:null}" fill="url(#color-7)" stroke-opacity="0.23922" stroke="#ffffff" stroke-width="2.5"/><path d="M-171.73189,1190.99291l49.67108,-875.84935c0,0 52.09629,-27.04789 108.02914,-23.87583c46.8138,2.6549 171.48526,60.73035 259.46064,73.30266c86.04024,12.29576 135.931,-20.87689 135.931,-20.87689l-49.67108,875.84935z" data-paper-data="{&quot;index&quot;:null}" fill="url(#color-8)" stroke-opacity="0.23922" stroke="#ffffff" stroke-width="2.5"/><path d="M-169.35144,1149.01832l49.67107,-875.84934c0,0 45.82036,38.60062 132.69908,36.11141c88.83272,-2.54519 219.27082,-46.1529 266.08462,-43.498c55.93286,3.17206 104.63707,35.93653 104.63707,35.93653l-49.67107,875.84934z" data-paper-data="{&quot;index&quot;:null}" fill="url(#color-9)" stroke-opacity="0.23922" stroke="#ffffff" stroke-width="2.5"/><text transform="translate(8.77032,24.31783) scale(0.5,0.5)" font-size="40" xml:space="preserve" fill-opacity="0.7098" fill="#000000" fill-rule="nonzero" stroke="none" stroke-width="1" stroke-linecap="butt" stroke-linejoin="miter" stroke-miterlimit="10" stroke-dasharray="" stroke-dashoffset="0" font-family="&quot;Lexend&quot;, Archivo" font-weight="normal" text-anchor="start" style="mix-blend-mode: normal"><tspan x="0" dy="0">0.1 Pre-Alpha</tspan></text></g></g></svg>