<svg version="1.1" xmlns="http://www.w3.org/2000/svg" xmlns:xlink="http://www.w3.org/1999/xlink" width="53.93288" height="52.99818" viewBox="0,0,53.93288,52.99818"><g transform="translate(-153.11318,-293.49841)"><g data-paper-data="{&quot;isPaintingLayer&quot;:true}" fill-rule="nonzero" stroke="none" stroke-linecap="butt" stroke-linejoin="miter" stroke-miterlimit="10" stroke-dasharray="" stroke-dashoffset="0" style="mix-blend-mode: normal"><path d="M153.11318,346.49659c0,0 0.38525,-20.88756 0.38525,-26.49659c0,-14.63642 11.86517,-26.50159 26.50159,-26.50159c14.63642,0 26.50159,11.86517 26.50159,26.50159c0,6.73826 0.54445,26.26711 0.54445,26.26711z" fill-opacity="0.37255" fill="#000000" stroke-width="0"/><path d="M163.50796,327.11919c-1.52704,0 -2.82502,-0.53447 -3.89395,-1.6034c-1.06893,-1.06893 -1.6034,-2.36691 -1.6034,-3.89395c0,-1.52704 0.53447,-2.82502 1.6034,-3.89395c1.06893,-1.06893 2.36691,-1.6034 3.89395,-1.6034v-4.12302c0,-1.13383 0.40371,-2.10446 1.21113,-2.91188c0.80742,-0.80742 1.77805,-1.21113 2.91188,-1.21113h6.87169c0,-1.52704 0.53447,-2.82502 1.6034,-3.89395c1.06893,-1.06893 2.36691,-1.6034 3.89395,-1.6034c1.52704,0 2.82502,0.53447 3.89395,1.6034c1.06893,1.06893 1.6034,2.36691 1.6034,3.89395h6.87169c1.13383,0 2.10446,0.40371 2.91188,1.21113c0.80742,0.80742 1.21113,1.77805 1.21113,2.91188v4.12302c1.52704,0 2.82502,0.53447 3.89395,1.6034c1.06893,1.06893 1.6034,2.36691 1.6034,3.89395c0,1.52704 -0.53447,2.82502 -1.6034,3.89395c-1.06893,1.06893 -2.36691,1.6034 -3.89395,1.6034v9.62037c0,1.13383 -0.4039,2.10446 -1.21171,2.91188c-0.80781,0.80742 -1.779,1.21113 -2.9136,1.21113h-24.75182c-1.1346,0 -2.10274,-0.40371 -2.90443,-1.21113c-0.80169,-0.80742 -1.20255,-1.77805 -1.20255,-2.91188zM173.12832,322.99618c0.76353,0 1.41252,-0.26723 1.94698,-0.80169c0.53447,-0.53447 0.80169,-1.18346 0.80169,-1.94698c0,-0.76353 -0.26723,-1.41252 -0.80169,-1.94698c-0.53447,-0.53447 -1.18346,-0.80169 -1.94698,-0.80169c-0.76353,0 -1.41252,0.26723 -1.94699,0.80169c-0.53447,0.53447 -0.80169,1.18346 -0.80169,1.94698c0,0.76353 0.26723,1.41252 0.80169,1.94698c0.53447,0.53447 1.18346,0.80169 1.94699,0.80169zM186.18453,322.99618c0.76353,0 1.41252,-0.26723 1.94699,-0.80169c0.53447,-0.53447 0.80169,-1.18346 0.80169,-1.94698c0,-0.76353 -0.26723,-1.41252 -0.80169,-1.94698c-0.53447,-0.53447 -1.18346,-0.80169 -1.94699,-0.80169c-0.76353,0 -1.41252,0.26723 -1.94698,0.80169c-0.53447,0.53447 -0.80169,1.18346 -0.80169,1.94698c0,0.76353 0.26723,1.41252 0.80169,1.94698c0.53447,0.53447 1.18346,0.80169 1.94698,0.80169zM171.75398,331.24221h16.49206v-4.12302h-16.49206zM167.63097,336.73956h24.73808v-24.73808h-24.73808z" fill="#e8eaed" stroke-width="1"/></g></g></svg>