<svg version="1.1" xmlns="http://www.w3.org/2000/svg" xmlns:xlink="http://www.w3.org/1999/xlink" width="304.8048" height="594.59459" viewBox="0,0,304.8048,594.59459"><defs><linearGradient x1="180" y1="402.14661" x2="180" y2="617.29732" gradientUnits="userSpaceOnUse" id="color-1"><stop offset="0" stop-color="#000000" stop-opacity="0.12157"/><stop offset="1" stop-color="#000000" stop-opacity="0"/></linearGradient></defs><g transform="translate(-27.5976,-22.70273)"><g data-paper-data="{&quot;isPaintingLayer&quot;:true}" fill-rule="nonzero" stroke="none" stroke-width="0" stroke-linecap="butt" stroke-linejoin="miter" stroke-miterlimit="10" stroke-dasharray="" stroke-dashoffset="0" style="mix-blend-mode: normal"><path d="M59.5976,617.29732c-17.67311,0 -32,-14.32689 -32,-32v-530.59459c0,-17.67311 14.32689,-32 32,-32h240.8048c17.67311,0 32,14.32689 32,32v530.59459c0,17.67311 -14.32689,32 -32,32z" fill-opacity="0.37255" fill="#000000"/><path d="M59.5976,617.29732c-17.66893,0 -31.99323,-14.32012 -32,-31.98747v-151.16324c0,-17.67311 14.32689,-32 32,-32h240.8048c17.66893,0 31.99323,14.32011 32,31.98746v151.16325c0,17.67311 -14.32689,32 -32,32z" fill="url(#color-1)"/></g></g></svg>