<svg version="1.1" xmlns="http://www.w3.org/2000/svg" xmlns:xlink="http://www.w3.org/1999/xlink" width="40.50312" height="42.34941" viewBox="0,0,40.50312,42.34941"><g transform="translate(-159.15778,-298.77186)"><g data-paper-data="{&quot;isPaintingLayer&quot;:true}" fill-rule="nonzero" stroke="none" stroke-linecap="butt" stroke-linejoin="miter" stroke-miterlimit="10" stroke-dasharray="" stroke-dashoffset="0" style="mix-blend-mode: normal"><path d="M180.00002,337.9115c-4.97542,0 -9.20452,-1.7414 -12.68731,-5.22419c-3.48279,-3.48279 -5.22419,-7.71189 -5.22419,-12.68731c0,-4.97542 1.7414,-9.20452 5.22419,-12.68731c3.48279,-3.48279 7.71189,-5.22419 12.68731,-5.22419c2.69502,0 5.19309,0.55973 7.49422,1.67921c2.30113,1.11947 4.28093,2.61209 5.9394,4.47787v-6.15708h4.47787v14.92625h-14.92625v-4.47787h8.14725c-1.20239,-1.82432 -2.77794,-3.27548 -4.72665,-4.35349c-1.9487,-1.07801 -4.08399,-1.61701 -6.40585,-1.61701c-3.73156,0 -6.90339,1.30604 -9.51548,3.91814c-2.61209,2.61209 -3.91814,5.78392 -3.91814,9.51548c0,3.73156 1.30604,6.90339 3.91814,9.51548c2.61209,2.61209 5.78392,3.91814 9.51548,3.91814c3.48279,0 6.46804,-1.15057 8.95575,-3.4517c2.48771,-2.30113 3.91814,-5.1309 4.29129,-8.4893h4.60226c-0.37316,4.64372 -2.25967,8.54113 -5.65954,11.69223c-3.39987,3.1511 -7.46312,4.72665 -12.18977,4.72665z" fill="#ffffff" stroke-width="1"/><path d="M159.15778,341.12128v-42.34941h40.50312v42.34941z" fill="none" stroke-width="0"/></g></g></svg>