<svg version="1.1" xmlns="http://www.w3.org/2000/svg" xmlns:xlink="http://www.w3.org/1999/xlink" width="53.93288" height="52.99818" viewBox="0,0,53.93288,52.99818"><g transform="translate(-153.11318,-293.49841)"><g data-paper-data="{&quot;isPaintingLayer&quot;:true}" fill-rule="nonzero" stroke="none" stroke-linecap="butt" stroke-linejoin="miter" stroke-miterlimit="10" stroke-dasharray="" stroke-dashoffset="0" style="mix-blend-mode: normal"><path d="M153.11318,346.49659c0,0 0.38525,-20.88756 0.38525,-26.49659c0,-14.63642 11.86517,-26.50159 26.50159,-26.50159c14.63642,0 26.50159,11.86517 26.50159,26.50159c0,6.73826 0.54445,26.26711 0.54445,26.26711z" fill-opacity="0.37255" fill="#000000" stroke-width="0"/><path d="M166.16454,341.48875c-1.03766,0 -1.92596,-0.37558 -2.6649,-1.12675c-0.73894,-0.75117 -1.10841,-1.63335 -1.10841,-2.64656v-27.67092c0,-1.0132 0.36947,-1.89539 1.10841,-2.64655c0.73894,-0.75117 1.62724,-1.12675 2.6649,-1.12675h27.67092c1.03766,0 1.92596,0.37558 2.6649,1.12675c0.73894,0.75117 1.10841,1.63335 1.10841,2.64655v27.67092c0,1.0132 -0.36947,1.89539 -1.10841,2.64656c-0.73894,0.75117 -1.62724,1.12675 -2.6649,1.12675zM166.16454,337.71544h27.67092v-27.67092h-27.67092zM168.68008,333.94213h22.63984l-7.54661,-10.06215l-5.65996,7.54661l-3.77331,-5.03108zM166.16454,337.71544v-27.67092z" fill="#e8eaed" stroke-width="1"/></g></g></svg>